<svg width="433" height="160" viewBox="0 0 433 160" fill="none" xmlns="http://www.w3.org/2000/svg">
<g filter="url(#filter0_i)">
<path d="M5.54113 101.904C3.42913 101.904 1.70113 101.616 0.357125 101.04C0.357125 84.912 1.74913 61.92 4.53313 32.064L5.82913 17.232C4.48513 15.6 3.18913 13.104 1.94113 9.74399C0.789125 6.384 0.213125 4.032 0.213125 2.688L0.357125 2.256C0.645125 1.872 3.04513 1.53599 7.55713 1.24799C12.0691 0.959996 17.0131 0.815998 22.3891 0.815998C27.8611 0.815998 30.8371 1.056 31.3171 1.536C31.7971 2.016 34.1011 8.064 38.2291 19.68C42.3571 31.2 45.4291 40.128 47.4451 46.464C47.6371 46.944 47.8771 47.184 48.1651 47.184C48.4531 47.184 48.9331 46.176 49.6051 44.16C50.2771 42.048 53.0611 34.848 57.9571 22.56C62.8531 10.176 66.1171 3.16799 67.7491 1.536C68.6131 0.671997 73.2691 0.239997 81.7171 0.239997C90.1651 0.239997 94.3891 0.479997 94.3891 0.959996C94.3891 2.592 93.7171 5.424 92.3731 9.456C91.1251 13.488 90.0691 16.32 89.2051 17.952C92.5651 48.384 94.2451 75.312 94.2451 98.736C94.2451 99.696 92.2771 100.56 88.3411 101.328C84.5011 102.192 81.3331 102.624 78.8371 102.624C76.3411 102.624 75.0931 102.432 75.0931 102.048C75.3811 98.112 75.5251 91.776 75.5251 83.04C75.5251 74.208 75.2851 63.744 74.8051 51.648C74.3251 36.576 73.7491 29.04 73.0771 29.04L72.2131 29.904C70.2931 33.456 67.7971 39.456 64.7251 47.904C61.7491 56.352 59.2531 63.936 57.2371 70.656L54.2131 80.592C53.7331 81.648 52.2931 82.176 49.8931 82.176C47.5891 82.176 45.6691 82.032 44.1331 81.744C42.6931 81.456 41.9251 81.168 41.8291 80.88C41.5411 79.824 38.5651 71.424 32.9011 55.68C27.2371 39.84 23.9731 31.392 23.1091 30.336C22.8211 29.76 22.5811 29.472 22.3891 29.472C22.1971 29.472 22.0531 29.808 21.9571 30.48C20.2291 39.216 19.3651 52.08 19.3651 69.072C19.3651 85.968 19.6051 95.76 20.0851 98.448C17.6851 100.752 12.8371 101.904 5.54113 101.904ZM139.823 50.208C139.823 47.424 138.335 46.032 135.359 46.032C131.423 46.032 127.967 48.048 124.991 52.08C122.015 56.112 120.527 60.96 120.527 66.624C120.527 67.968 120.719 68.64 121.103 68.64C124.559 68.544 128.543 66.576 133.055 62.736C137.567 58.8 139.823 54.624 139.823 50.208ZM152.351 96C149.087 98.208 142.703 99.312 133.199 99.312C123.695 99.312 116.399 96.48 111.311 90.816C106.223 85.152 103.679 77.616 103.679 68.208C103.679 58.704 106.703 50.496 112.751 43.584C118.895 36.576 127.487 33.072 138.527 33.072C143.039 33.072 147.167 34.272 150.911 36.672C154.751 39.072 156.671 43.296 156.671 49.344C156.671 55.296 154.031 61.2 148.751 67.056C143.567 72.912 136.463 77.376 127.439 80.448C127.439 81.6 128.591 82.56 130.895 83.328C133.295 84 135.647 84.336 137.951 84.336C145.247 84.336 151.007 83.04 155.231 80.448C155.327 80.352 155.471 80.304 155.663 80.304C155.855 80.304 155.951 81.216 155.951 83.04C155.951 88.608 154.751 92.928 152.351 96ZM167.896 78.144L167.464 44.304C167.464 38.16 167.704 34.848 168.184 34.368C169.336 33.312 171.112 32.352 173.512 31.488C175.912 30.528 178.216 30.048 180.424 30.048C182.632 30.048 183.736 30.24 183.736 30.624C183.352 34.848 183.16 38.064 183.16 40.272C183.16 42.48 183.256 43.584 183.448 43.584C183.64 43.584 183.928 43.392 184.312 43.008C184.696 42.528 185.368 41.856 186.328 40.992C187.384 40.032 189.256 38.784 191.944 37.248C194.728 35.616 197.272 34.8 199.576 34.8C205.816 34.8 210.52 37.584 213.688 43.152C219.16 35.472 225.208 31.632 231.832 31.632C237.784 31.632 242.056 34.176 244.648 39.264C247.336 44.928 248.92 50.592 249.4 56.256C249.976 64.512 250.264 73.056 250.264 81.888L249.688 98.736C249.688 99.408 248.104 100.032 244.936 100.608C241.768 101.28 239.224 101.616 237.304 101.616L232.696 100.896C233.752 91.392 234.28 83.712 234.28 77.856C234.28 72 234.184 67.824 233.992 65.328C233.896 62.736 233.56 60.192 232.984 57.696C232.408 55.104 231.496 53.28 230.248 52.224C229.096 51.072 227.608 50.496 225.784 50.496C223.96 50.496 222.328 51.024 220.888 52.08C219.448 53.04 218.392 54 217.72 54.96C217.144 55.92 216.856 56.544 216.856 56.832C217.144 59.904 217.288 67.008 217.288 78.144L216.712 89.52C216.712 90.288 215.176 90.96 212.104 91.536C209.032 92.112 206.536 92.4 204.616 92.4L200.008 91.68C200.872 83.904 201.304 76.656 201.304 69.936C201.304 63.12 200.92 58.368 200.152 55.68C199.48 52.896 197.608 51.504 194.536 51.504C191.464 51.504 188.872 53.04 186.76 56.112C184.648 59.184 183.592 61.536 183.592 63.168V66.192L183.736 81.456C183.736 90.864 183.544 95.808 183.16 96.288C180.76 98.592 175.72 99.744 168.04 99.744C167.272 99.744 166.888 99.6 166.888 99.312C167.56 95.184 167.896 88.128 167.896 78.144ZM321.392 66.048C321.392 75.168 318.608 83.088 313.04 89.808C307.568 96.432 300.08 99.744 290.576 99.744C281.168 99.744 273.776 96.816 268.4 90.96C263.024 85.104 260.336 77.52 260.336 68.208C260.336 58.8 263.648 50.496 270.272 43.296C276.992 36 286.016 32.352 297.344 32.352C301.952 32.544 304.448 32.832 304.832 33.216C305.216 33.6 305.408 34.512 305.408 35.952C305.408 37.392 305.264 38.976 304.976 40.704C306.416 40.704 308.24 41.568 310.448 43.296C312.752 44.928 314.624 46.608 316.064 48.336C317.504 50.064 318.752 52.512 319.808 55.68C320.864 58.752 321.392 62.208 321.392 66.048ZM300.368 55.968C298.16 54.528 296 53.808 293.888 53.808H292.736C292.544 53.424 292.448 52.608 292.448 51.36C292.448 50.112 292.592 48.912 292.88 47.76C288.944 47.76 285.248 49.536 281.792 53.088C278.432 56.64 276.752 61.584 276.752 67.92C276.752 75.408 279.152 80.592 283.952 83.472C285.776 84.624 288.272 85.2 291.44 85.2C294.704 85.2 297.728 83.712 300.512 80.736C303.392 77.76 304.832 73.344 304.832 67.488C304.832 61.632 303.344 57.792 300.368 55.968ZM333.254 76.56L332.966 43.872C332.966 38.208 333.158 35.184 333.542 34.8C334.598 33.744 336.422 32.832 339.014 32.064C341.606 31.2 344.006 30.768 346.214 30.768C348.518 30.768 349.67 31.008 349.67 31.488C349.382 34.08 349.238 37.056 349.238 40.416C349.238 43.68 349.334 45.312 349.526 45.312C349.718 45.312 349.91 45.216 350.102 45.024C350.294 44.736 350.582 44.352 350.966 43.872C351.446 43.296 352.358 42.336 353.702 40.992C355.142 39.648 356.678 38.496 358.31 37.536C362.438 34.848 366.854 33.504 371.558 33.504C372.326 34.752 372.71 36.672 372.71 39.264C372.71 44.736 372.038 48.624 370.694 50.928L370.118 52.08L368.246 51.792C361.334 51.792 355.91 54.624 351.974 60.288C350.438 62.592 349.67 64.32 349.67 65.472V78.144C349.67 89.664 349.526 95.568 349.238 95.856C346.55 98.448 341.27 99.744 333.398 99.744C332.63 99.744 332.246 99.6 332.246 99.312C332.918 95.568 333.254 87.984 333.254 76.56ZM431.63 55.824L431.774 94.128C431.774 101.616 430.766 108.288 428.75 114.144C426.83 120 424.43 124.512 421.55 127.68C418.766 130.848 415.55 133.44 411.902 135.456C405.95 138.816 399.902 140.496 393.758 140.496C393.47 140.496 392.894 139.776 392.03 138.336C391.166 136.896 390.35 134.928 389.582 132.432C388.814 130.032 388.43 127.776 388.43 125.664C392.078 125.664 395.726 124.944 399.374 123.504C403.022 122.16 405.566 120.672 407.006 119.04C408.446 117.504 409.886 115.536 411.326 113.136C414.302 108.432 415.79 100.8 415.79 90.24L415.646 86.064C415.646 85.488 415.55 85.2 415.358 85.2C415.166 85.2 414.974 85.344 414.782 85.632C414.59 85.92 414.35 86.304 414.062 86.784C413.774 87.168 413.054 87.936 411.902 89.088C410.846 90.144 409.694 91.104 408.446 91.968C405.086 94.272 401.678 95.424 398.222 95.424C394.862 95.424 392.174 94.992 390.158 94.128C388.238 93.264 386.606 92.16 385.262 90.816C384.014 89.472 382.958 87.6 382.094 85.2C381.23 82.704 380.558 80.4 380.078 78.288C379.598 76.176 379.262 73.296 379.07 69.648C378.686 64.56 378.494 59.28 378.494 53.808C378.494 46.224 378.878 40.032 379.646 35.232L380.078 33.216C380.078 32.544 381.518 31.872 384.398 31.2C387.374 30.528 389.822 30.192 391.742 30.192L396.35 30.912C395.294 40.416 394.766 48.432 394.766 54.96C394.766 61.488 395.438 66.912 396.782 71.232C398.126 75.552 400.382 77.712 403.55 77.712C406.718 77.712 409.214 76.8 411.038 74.976C412.958 73.056 414.158 71.184 414.638 69.36L415.358 66.624C415.166 60.576 415.07 54.096 415.07 47.184C415.07 40.176 415.31 36.432 415.79 35.952C417.038 34.704 419.198 33.744 422.27 33.072C425.438 32.4 427.982 32.064 429.902 32.064C431.822 32.064 432.782 32.208 432.782 32.496C432.014 37.008 431.63 44.784 431.63 55.824ZM91.4069 157.968C90.7029 157.968 90.1269 157.872 89.6789 157.68C89.6789 152.304 90.1429 144.64 91.0709 134.688L91.5029 129.744C91.0549 129.2 90.6229 128.368 90.2069 127.248C89.8229 126.128 89.6309 125.344 89.6309 124.896L89.6789 124.752C89.7749 124.624 90.5749 124.512 92.0789 124.416C93.5829 124.32 95.2309 124.272 97.0229 124.272C98.8469 124.272 99.8389 124.352 99.9989 124.512C100.159 124.672 100.927 126.688 102.303 130.56C103.679 134.4 104.703 137.376 105.375 139.488C105.439 139.648 105.519 139.728 105.615 139.728C105.711 139.728 105.871 139.392 106.095 138.72C106.319 138.016 107.247 135.616 108.879 131.52C110.511 127.392 111.599 125.056 112.143 124.512C112.431 124.224 113.983 124.08 116.799 124.08C119.615 124.08 121.023 124.16 121.023 124.32C121.023 124.864 120.799 125.808 120.351 127.152C119.935 128.496 119.583 129.44 119.295 129.984C120.415 140.128 120.975 149.104 120.975 156.912C120.975 157.232 120.319 157.52 119.007 157.776C117.727 158.064 116.671 158.208 115.839 158.208C115.007 158.208 114.591 158.144 114.591 158.016C114.687 156.704 114.735 154.592 114.735 151.68C114.735 148.736 114.655 145.248 114.495 141.216C114.335 136.192 114.143 133.68 113.919 133.68L113.631 133.968C112.991 135.152 112.159 137.152 111.135 139.968C110.143 142.784 109.311 145.312 108.639 147.552L107.631 150.864C107.471 151.216 106.991 151.392 106.191 151.392C105.423 151.392 104.783 151.344 104.271 151.248C103.791 151.152 103.535 151.056 103.503 150.96C103.407 150.608 102.415 147.808 100.527 142.56C98.6389 137.28 97.5509 134.464 97.2629 134.112C97.1669 133.92 97.0869 133.824 97.0229 133.824C96.9589 133.824 96.9109 133.936 96.8789 134.16C96.3029 137.072 96.0149 141.36 96.0149 147.024C96.0149 152.656 96.0949 155.92 96.2549 156.816C95.4549 157.584 93.8389 157.968 91.4069 157.968ZM141.981 145.296C141.981 149.296 142.029 151.632 142.125 152.304C142.381 154.064 142.925 155.328 143.757 156.096C143.757 156.448 143.117 156.976 141.837 157.68C140.589 158.384 139.453 158.736 138.429 158.736C138.141 158.736 137.837 158.304 137.517 157.44C137.197 156.608 137.005 155.984 136.941 155.568C136.909 155.152 136.877 154.944 136.845 154.944L136.701 155.04C135.005 156.384 133.021 157.056 130.749 157.056C128.477 157.056 126.717 156.512 125.469 155.424C124.253 154.304 123.645 152.848 123.645 151.056C123.645 149.264 124.029 147.76 124.797 146.544C125.597 145.296 126.525 144.352 127.581 143.712C128.637 143.072 129.805 142.56 131.085 142.176C133.037 141.536 134.573 141.216 135.693 141.216L135.789 141.168C135.789 139.6 133.805 138.816 129.837 138.816C128.269 138.816 127.101 138.88 126.333 139.008H126.285C126.285 138.368 126.477 137.568 126.861 136.608C127.277 135.648 127.613 135.024 127.869 134.736C128.157 134.448 129.309 134.304 131.325 134.304C134.973 134.304 137.661 135.008 139.389 136.416C141.117 137.792 141.981 139.936 141.981 142.848V145.296ZM136.653 148.368V146.544C136.653 145.84 136.637 145.488 136.605 145.488C134.461 145.488 132.605 146.048 131.037 147.168C130.045 147.872 129.549 148.752 129.549 149.808C129.549 150.48 129.789 151.04 130.269 151.488C130.749 151.936 131.469 152.16 132.429 152.16C133.421 152.16 134.365 151.872 135.261 151.296C136.189 150.72 136.653 149.744 136.653 148.368ZM152.504 124.56C152.44 125.296 152.36 127.312 152.264 130.608C154.664 130.608 155.864 130.656 155.864 130.752C155.864 131.84 155.704 132.816 155.384 133.68C155.064 134.512 154.76 134.928 154.472 134.928H152.216C152.152 139.664 152.12 143.52 152.12 146.496C152.12 149.44 152.168 151.408 152.264 152.4C152.456 154.064 153.112 155.424 154.232 156.48C154.232 156.832 153.608 157.344 152.36 158.016C151.144 158.688 149.992 159.024 148.904 159.024C148.808 159.024 148.616 158.864 148.328 158.544C148.072 158.224 147.784 157.696 147.464 156.96C147.176 156.224 146.984 155.504 146.888 154.8C146.824 154.096 146.792 151.584 146.792 147.264C146.792 142.944 146.84 138.864 146.936 135.024L144.248 135.072C144.088 134.912 144.008 134.224 144.008 133.008C144.008 131.76 144.152 131.008 144.44 130.752C145.144 130.72 145.992 130.688 146.984 130.656C146.984 128.8 146.936 127.6 146.84 127.056C146.744 126.512 146.696 126.192 146.696 126.096C146.696 125.776 147.24 125.408 148.328 124.992C149.448 124.576 150.424 124.368 151.256 124.368C152.088 124.368 152.504 124.432 152.504 124.56ZM166.747 157.392C163.099 157.392 160.395 156.464 158.635 154.608C156.875 152.752 155.995 150.416 155.995 147.6C155.995 143.664 157.307 140.528 159.931 138.192C162.587 135.856 165.819 134.688 169.627 134.688C170.363 134.688 170.795 134.704 170.923 134.736C171.115 134.896 171.211 135.664 171.211 137.04C171.211 138.416 171.019 139.248 170.635 139.536H170.299C167.835 139.536 165.835 140.112 164.299 141.264C163.659 141.744 163.099 142.496 162.619 143.52C162.139 144.544 161.899 145.776 161.899 147.216C161.899 148.656 162.331 149.856 163.195 150.816C164.059 151.744 165.451 152.208 167.371 152.208C168.875 152.208 170.203 151.92 171.355 151.344C171.483 151.28 171.563 151.248 171.595 151.248C171.851 151.504 171.979 152.368 171.979 153.84C171.979 155.312 171.803 156.192 171.451 156.48C170.395 157.088 168.827 157.392 166.747 157.392ZM175.374 146.688L175.23 130.032C175.23 126.928 175.31 125.296 175.47 125.136C175.854 124.752 176.478 124.384 177.342 124.032C178.206 123.68 179.038 123.504 179.838 123.504C180.638 123.504 181.038 123.568 181.038 123.696C181.006 123.984 180.942 126.08 180.846 129.984C180.75 133.888 180.702 136.448 180.702 137.664V138.096C180.702 138.256 180.75 138.336 180.846 138.336L181.806 137.376C182.158 137.056 182.862 136.624 183.918 136.08C185.006 135.504 186.014 135.216 186.942 135.216C187.902 135.216 188.686 135.376 189.294 135.696C189.934 136.016 190.462 136.4 190.878 136.848C191.294 137.296 191.646 137.952 191.934 138.816C192.222 139.648 192.43 140.432 192.558 141.168C192.718 141.872 192.846 142.848 192.942 144.096C193.038 145.792 193.086 147.936 193.086 150.528L192.894 156.912C192.798 157.168 192.254 157.392 191.262 157.584C190.27 157.776 189.454 157.872 188.814 157.872L187.23 157.632C187.55 154.752 187.71 151.984 187.71 149.328C187.71 146.672 187.518 144.656 187.134 143.28C186.75 141.904 185.966 141.216 184.782 141.216C184.014 141.216 183.294 141.52 182.622 142.128C181.95 142.736 181.486 143.344 181.23 143.952L180.798 144.864C180.862 147.072 180.894 149.44 180.894 151.968C180.894 154.496 180.814 155.824 180.654 155.952C179.694 156.816 177.934 157.248 175.374 157.248C175.118 157.248 174.99 157.2 174.99 157.104C175.246 155.696 175.374 152.224 175.374 146.688ZM227.945 140.4L227.897 139.728C228.793 139.728 229.673 139.888 230.537 140.208C231.401 140.496 232.041 140.784 232.457 141.072L233.129 141.504C233.129 145.856 231.753 149.456 229.001 152.304C229.897 153.552 230.905 154.624 232.025 155.52C232.057 155.552 232.073 155.584 232.073 155.616C232.073 155.936 231.433 156.448 230.153 157.152C228.905 157.888 227.817 158.256 226.889 158.256C225.801 156.976 225.033 156.032 224.585 155.424C222.537 156.608 220.265 157.2 217.769 157.2C214.441 157.2 211.737 156.368 209.657 154.704C207.577 153.008 206.537 150.528 206.537 147.264C206.537 142.368 208.905 138.736 213.641 136.368C212.777 134.096 212.345 132.224 212.345 130.752C212.345 128.448 213.289 126.704 215.177 125.52C217.065 124.304 219.241 123.696 221.705 123.696C223.337 123.792 224.217 123.904 224.345 124.032C224.825 124.96 225.065 126.208 225.065 127.776C225.065 128.064 225.049 128.272 225.017 128.4C224.121 128.272 223.225 128.208 222.329 128.208C221.433 128.208 220.537 128.448 219.641 128.928C218.745 129.408 218.297 130.32 218.297 131.664C218.297 133.008 219.145 135.472 220.841 139.056C222.537 142.64 224.233 145.648 225.929 148.08C226.601 147.216 227.097 146.032 227.417 144.528C227.769 142.992 227.945 141.616 227.945 140.4ZM212.153 146.784C212.153 148.352 212.617 149.68 213.545 150.768C214.505 151.824 215.881 152.352 217.673 152.352C219.465 152.352 220.841 152.048 221.801 151.44C219.465 147.92 217.513 144.464 215.945 141.072C215.049 141.36 214.217 141.952 213.449 142.848C212.585 143.904 212.153 145.216 212.153 146.784ZM259.833 157.488C255.161 157.488 251.625 156.144 249.225 153.456C246.825 150.768 245.625 147.296 245.625 143.04C245.625 139.424 246.425 136.064 248.025 132.96C248.953 131.136 250.121 129.536 251.529 128.16C252.937 126.784 254.841 125.648 257.241 124.752C259.641 123.856 262.361 123.408 265.401 123.408C266.425 123.408 267.337 123.504 268.137 123.696C268.937 123.888 269.337 124.016 269.337 124.08C269.337 125.616 269.225 127.376 269.001 129.36C268.809 131.312 268.697 132.304 268.665 132.336C268.505 132.496 267.833 132.752 266.649 133.104C265.497 133.456 264.633 133.632 264.057 133.632V133.344C264.057 131.904 263.849 130.896 263.433 130.32C263.017 129.744 262.297 129.456 261.273 129.456C259.001 129.456 256.889 130.656 254.937 133.056C252.985 135.424 252.009 138.688 252.009 142.848C252.009 145.056 252.553 147.04 253.641 148.8C254.217 149.728 255.049 150.48 256.137 151.056C257.257 151.632 258.569 151.92 260.073 151.92C263.081 151.92 266.009 150.528 268.857 147.744C268.985 147.744 269.241 147.952 269.625 148.368C270.041 148.752 270.441 149.28 270.825 149.952C271.625 151.232 272.025 152.016 272.025 152.304C272.025 152.592 271.529 153.136 270.537 153.936C269.545 154.704 268.041 155.488 266.025 156.288C264.009 157.088 261.945 157.488 259.833 157.488ZM292.263 145.296C292.263 149.296 292.311 151.632 292.407 152.304C292.663 154.064 293.207 155.328 294.039 156.096C294.039 156.448 293.399 156.976 292.119 157.68C290.871 158.384 289.735 158.736 288.711 158.736C288.423 158.736 288.119 158.304 287.799 157.44C287.479 156.608 287.287 155.984 287.223 155.568C287.191 155.152 287.159 154.944 287.127 154.944L286.983 155.04C285.287 156.384 283.303 157.056 281.031 157.056C278.759 157.056 276.999 156.512 275.751 155.424C274.535 154.304 273.927 152.848 273.927 151.056C273.927 149.264 274.311 147.76 275.079 146.544C275.879 145.296 276.807 144.352 277.863 143.712C278.919 143.072 280.087 142.56 281.367 142.176C283.319 141.536 284.855 141.216 285.975 141.216L286.071 141.168C286.071 139.6 284.087 138.816 280.119 138.816C278.551 138.816 277.383 138.88 276.615 139.008H276.567C276.567 138.368 276.759 137.568 277.143 136.608C277.559 135.648 277.895 135.024 278.151 134.736C278.439 134.448 279.591 134.304 281.607 134.304C285.255 134.304 287.943 135.008 289.671 136.416C291.399 137.792 292.263 139.936 292.263 142.848V145.296ZM286.935 148.368V146.544C286.935 145.84 286.919 145.488 286.887 145.488C284.743 145.488 282.887 146.048 281.319 147.168C280.327 147.872 279.831 148.752 279.831 149.808C279.831 150.48 280.071 151.04 280.551 151.488C281.031 151.936 281.751 152.16 282.711 152.16C283.703 152.16 284.647 151.872 285.543 151.296C286.471 150.72 286.935 149.744 286.935 148.368ZM302.785 124.56C302.721 125.296 302.641 127.312 302.545 130.608C304.945 130.608 306.145 130.656 306.145 130.752C306.145 131.84 305.985 132.816 305.665 133.68C305.345 134.512 305.041 134.928 304.753 134.928H302.497C302.433 139.664 302.401 143.52 302.401 146.496C302.401 149.44 302.449 151.408 302.545 152.4C302.737 154.064 303.393 155.424 304.513 156.48C304.513 156.832 303.889 157.344 302.641 158.016C301.425 158.688 300.273 159.024 299.185 159.024C299.089 159.024 298.897 158.864 298.609 158.544C298.353 158.224 298.065 157.696 297.745 156.96C297.457 156.224 297.265 155.504 297.169 154.8C297.105 154.096 297.073 151.584 297.073 147.264C297.073 142.944 297.121 138.864 297.217 135.024L294.529 135.072C294.369 134.912 294.289 134.224 294.289 133.008C294.289 131.76 294.433 131.008 294.721 130.752C295.425 130.72 296.273 130.688 297.265 130.656C297.265 128.8 297.217 127.6 297.121 127.056C297.025 126.512 296.977 126.192 296.977 126.096C296.977 125.776 297.521 125.408 298.609 124.992C299.729 124.576 300.705 124.368 301.537 124.368C302.369 124.368 302.785 124.432 302.785 124.56ZM317.028 157.392C313.38 157.392 310.676 156.464 308.916 154.608C307.156 152.752 306.276 150.416 306.276 147.6C306.276 143.664 307.588 140.528 310.212 138.192C312.868 135.856 316.1 134.688 319.908 134.688C320.644 134.688 321.076 134.704 321.204 134.736C321.396 134.896 321.492 135.664 321.492 137.04C321.492 138.416 321.3 139.248 320.916 139.536H320.58C318.116 139.536 316.116 140.112 314.58 141.264C313.94 141.744 313.38 142.496 312.9 143.52C312.42 144.544 312.18 145.776 312.18 147.216C312.18 148.656 312.612 149.856 313.476 150.816C314.34 151.744 315.732 152.208 317.652 152.208C319.156 152.208 320.484 151.92 321.636 151.344C321.764 151.28 321.844 151.248 321.876 151.248C322.132 151.504 322.26 152.368 322.26 153.84C322.26 155.312 322.084 156.192 321.732 156.48C320.676 157.088 319.108 157.392 317.028 157.392ZM325.656 146.688L325.512 130.032C325.512 126.928 325.592 125.296 325.752 125.136C326.136 124.752 326.76 124.384 327.624 124.032C328.488 123.68 329.32 123.504 330.12 123.504C330.92 123.504 331.32 123.568 331.32 123.696C331.288 123.984 331.224 126.08 331.128 129.984C331.032 133.888 330.984 136.448 330.984 137.664V138.096C330.984 138.256 331.032 138.336 331.128 138.336L332.088 137.376C332.44 137.056 333.144 136.624 334.2 136.08C335.288 135.504 336.296 135.216 337.224 135.216C338.184 135.216 338.968 135.376 339.576 135.696C340.216 136.016 340.744 136.4 341.16 136.848C341.576 137.296 341.928 137.952 342.216 138.816C342.504 139.648 342.712 140.432 342.84 141.168C343 141.872 343.128 142.848 343.224 144.096C343.32 145.792 343.368 147.936 343.368 150.528L343.176 156.912C343.08 157.168 342.536 157.392 341.544 157.584C340.552 157.776 339.736 157.872 339.096 157.872L337.512 157.632C337.832 154.752 337.992 151.984 337.992 149.328C337.992 146.672 337.8 144.656 337.416 143.28C337.032 141.904 336.248 141.216 335.064 141.216C334.296 141.216 333.576 141.52 332.904 142.128C332.232 142.736 331.768 143.344 331.512 143.952L331.08 144.864C331.144 147.072 331.176 149.44 331.176 151.968C331.176 154.496 331.096 155.824 330.936 155.952C329.976 156.816 328.216 157.248 325.656 157.248C325.4 157.248 325.272 157.2 325.272 157.104C325.528 155.696 325.656 152.224 325.656 146.688Z" fill="black"/>
</g>
<defs>
<filter id="filter0_i" x="0.21312" y="0.23999" width="436.569" height="162.784" filterUnits="userSpaceOnUse" color-interpolation-filters="sRGB">
<feFlood flood-opacity="0" result="BackgroundImageFix"/>
<feBlend mode="normal" in="SourceGraphic" in2="BackgroundImageFix" result="shape"/>
<feColorMatrix in="SourceAlpha" type="matrix" values="0 0 0 0 0 0 0 0 0 0 0 0 0 0 0 0 0 0 127 0" result="hardAlpha"/>
<feOffset dx="40" dy="4"/>
<feGaussianBlur stdDeviation="2"/>
<feComposite in2="hardAlpha" operator="arithmetic" k2="-1" k3="1"/>
<feColorMatrix type="matrix" values="0 0 0 0 0 0 0 0 0 0 0 0 0 0 0 0 0 0 0.25 0"/>
<feBlend mode="normal" in2="shape" result="effect1_innerShadow"/>
</filter>
</defs>
</svg>
